# xmcd CD database file
#
# Track frame offsets:
#	150
#	48800
#	85830
#	116032
#	149915
#	188225
#	226697
#	250892
#	285270
#
# Disc length: 4093 seconds
#
# Revision: 0
# Processed by: cddbd v1.5PL3 Copyright (c) Steve Scherf et al.
# Submitted via: CDex 1.51
#
DISCID=770ffb09
DTITLE=Moncef Genoud - Time In Carouge
DYEAR=2004
DGENRE=Jazz
TTITLE0=Prelude
TTITLE1=Waiting For Birth
TTITLE2=Time In Carouge
TTITLE3=Reflections
TTITLE4=Foncef
TTITLE5=Simple Waltz
TTITLE6=Giant Step
TTITLE7=Lovely Vidj
TTITLE8=Oppossum
EXTD=YEAR: 2004
EXTT0=
EXTT1=
EXTT2=
EXTT3=
EXTT4=
EXTT5=
EXTT6=
EXTT7=
EXTT8=
PLAYORDER=
